<svg width="20" height="20" viewBox="0 0 20 20" fill="none" xmlns="http://www.w3.org/2000/svg">
<path d="M16.0668 4.18744H13.5156C13.4685 4.18744 13.4297 4.14864 13.4297 4.1015V1.55037L16.0668 4.18744Z" fill="#D93025" stroke="#D93025"/>
<path d="M11.0859 9.91406H12.4297V10.0859H11.0859V9.91406Z" fill="#D93025" stroke="#D93025"/>
<path d="M11.0859 12.2578H12.4297V12.4297H11.0859V12.2578Z" fill="#D93025" stroke="#D93025"/>
<path d="M7.07031 11.7578H9.41406V12.9297H7.07031V11.7578Z" fill="#D93025"/>
<path d="M10.5859 14.1016H12.9297V15.2734H10.5859V14.1016Z" fill="#D93025"/>
<path d="M4.14062 20H15.8594C16.8287 20 17.6172 19.2115 17.6172 18.2422V5.85938H13.5156C12.5463 5.85938 11.7578 5.07086 11.7578 4.10156V0H4.14062C3.17133 0 2.38281 0.788516 2.38281 1.75781V18.2422C2.38281 19.2115 3.17133 20 4.14062 20ZM5.89844 8.82812C5.89844 8.50426 6.16051 8.24219 6.48438 8.24219H13.5156C13.8395 8.24219 14.1016 8.50426 14.1016 8.82812V15.8594C14.1016 16.1832 13.8395 16.4453 13.5156 16.4453H6.48438C6.16051 16.4453 5.89844 16.1832 5.89844 15.8594V8.82812Z" fill="#D93025"/>
<path d="M7.07031 14.1016H9.41406V15.2734H7.07031V14.1016Z" fill="#D93025"/>
<path d="M7.07031 9.41406H9.41406V10.5859H7.07031V9.41406Z" fill="#D93025"/>
</svg>
